<svg id="my-svg" width="100%" xmlns="http://www.w3.org/2000/svg" xmlns:xlink="http://www.w3.org/1999/xlink" class="classDiagram" style="max-width: 435.523px; background-color: transparent;" viewBox="0 0 435.5234375 260" role="graphics-document document" aria-roledescription="class"><style>#my-svg{font-family:Segoe UI,Helvetica Neue,Arial,sans-serif;font-size:16px;fill:#1E2833;}@keyframes edge-animation-frame{from{stroke-dashoffset:0;}}@keyframes dash{to{stroke-dashoffset:0;}}#my-svg .edge-animation-slow{stroke-dasharray:9,5!important;stroke-dashoffset:900;animation:dash 50s linear infinite;stroke-linecap:round;}#my-svg .edge-animation-fast{stroke-dasharray:9,5!important;stroke-dashoffset:900;animation:dash 20s linear infinite;stroke-linecap:round;}#my-svg .error-icon{fill:#FBFAF7;}#my-svg .error-text{fill:#040508;stroke:#040508;}#my-svg .edge-thickness-normal{stroke-width:1px;}#my-svg .edge-thickness-thick{stroke-width:3.5px;}#my-svg .edge-pattern-solid{stroke-dasharray:0;}#my-svg .edge-thickness-invisible{stroke-width:0;fill:none;}#my-svg .edge-pattern-dashed{stroke-dasharray:3;}#my-svg .edge-pattern-dotted{stroke-dasharray:2;}#my-svg .marker{fill:#33698C;stroke:#33698C;}#my-svg .marker.cross{stroke:#33698C;}#my-svg svg{font-family:Segoe UI,Helvetica Neue,Arial,sans-serif;font-size:16px;}#my-svg p{margin:0;}#my-svg g.classGroup text{fill:#33698C;stroke:none;font-family:Segoe UI,Helvetica Neue,Arial,sans-serif;font-size:10px;}#my-svg g.classGroup text .title{font-weight:bolder;}#my-svg .cluster-label text{fill:#040508;}#my-svg .cluster-label span{color:#040508;}#my-svg .cluster-label span p{background-color:transparent;}#my-svg .cluster rect{fill:#F4F0E6;stroke:#DED8C9;stroke-width:1px;}#my-svg .cluster text{fill:#040508;}#my-svg .cluster span{color:#040508;}#my-svg .nodeLabel,#my-svg .edgeLabel{color:#1E2833;}#my-svg .noteLabel .nodeLabel,#my-svg .noteLabel .edgeLabel{color:#46536B;}#my-svg .edgeLabel .label rect{fill:#FFFFFF;}#my-svg .label text{fill:#1E2833;}#my-svg .labelBkg{background:#FFFFFF;}#my-svg .edgeLabel .label span{background:#FFFFFF;}#my-svg .classTitle{font-weight:bolder;}#my-svg .node rect,#my-svg .node circle,#my-svg .node ellipse,#my-svg .node polygon,#my-svg .node path{fill:#FFFFFF;stroke:#33698C;stroke-width:1;}#my-svg .divider{stroke:#33698C;stroke-width:1;}#my-svg g.clickable{cursor:pointer;}#my-svg g.classGroup rect{fill:#FFFFFF;stroke:#33698C;}#my-svg g.classGroup line{stroke:#33698C;stroke-width:1;}#my-svg .classLabel .box{stroke:none;stroke-width:0;fill:#FFFFFF;opacity:0.5;}#my-svg .classLabel .label{fill:#33698C;font-size:10px;}#my-svg .relation{stroke:#33698C;stroke-width:1;fill:none;}#my-svg .dashed-line{stroke-dasharray:3;}#my-svg .dotted-line{stroke-dasharray:1 2;}#my-svg [id$="-compositionStart"],#my-svg .composition{fill:#33698C!important;stroke:#33698C!important;stroke-width:1;}#my-svg [id$="-compositionEnd"],#my-svg .composition{fill:#33698C!important;stroke:#33698C!important;stroke-width:1;}#my-svg [id$="-dependencyStart"],#my-svg .dependency{fill:#33698C!important;stroke:#33698C!important;stroke-width:1;}#my-svg [id$="-dependencyEnd"],#my-svg .dependency{fill:#33698C!important;stroke:#33698C!important;stroke-width:1;}#my-svg [id$="-extensionStart"],#my-svg .extension{fill:transparent!important;stroke:#33698C!important;stroke-width:1;}#my-svg [id$="-extensionEnd"],#my-svg .extension{fill:transparent!important;stroke:#33698C!important;stroke-width:1;}#my-svg [id$="-aggregationStart"],#my-svg .aggregation{fill:transparent!important;stroke:#33698C!important;stroke-width:1;}#my-svg [id$="-aggregationEnd"],#my-svg .aggregation{fill:transparent!important;stroke:#33698C!important;stroke-width:1;}#my-svg [id$="-lollipopStart"],#my-svg .lollipop{fill:#FFFFFF!important;stroke:#33698C!important;stroke-width:1;}#my-svg [id$="-lollipopEnd"],#my-svg .lollipop{fill:#FFFFFF!important;stroke:#33698C!important;stroke-width:1;}#my-svg .edgeTerminals{font-size:11px;line-height:initial;}#my-svg .classTitleText{text-anchor:middle;font-size:18px;fill:#1E2833;}#my-svg .edgeLabel[data-look="neo"]{background-color:#FBFAF7;text-align:center;}#my-svg .edgeLabel[data-look="neo"] p{background-color:#FBFAF7;}#my-svg .edgeLabel[data-look="neo"] rect{opacity:0.5;background-color:#FBFAF7;fill:#FBFAF7;}#my-svg .label-icon{display:inline-block;height:1em;overflow:visible;vertical-align:-0.125em;}#my-svg .node .label-icon path{fill:currentColor;stroke:revert;stroke-width:revert;}#my-svg .node .neo-node{stroke:#33698C;}#my-svg [data-look="neo"].node rect,#my-svg [data-look="neo"].cluster rect,#my-svg [data-look="neo"].node polygon{stroke:url(#my-svg-gradient);filter:drop-shadow( 1px 2px 2px rgba(185,185,185,1));}#my-svg [data-look="neo"].swimlane.cluster rect{filter:none;}#my-svg [data-look="neo"].node path{stroke:url(#my-svg-gradient);stroke-width:1px;}#my-svg [data-look="neo"].node .outer-path{filter:drop-shadow( 1px 2px 2px rgba(185,185,185,1));}#my-svg [data-look="neo"].node .neo-line path{stroke:#33698C;filter:none;}#my-svg [data-look="neo"].node circle{stroke:url(#my-svg-gradient);filter:drop-shadow( 1px 2px 2px rgba(185,185,185,1));}#my-svg [data-look="neo"].node circle .state-start{fill:#000000;}#my-svg [data-look="neo"].icon-shape .icon{fill:url(#my-svg-gradient);filter:drop-shadow( 1px 2px 2px rgba(185,185,185,1));}#my-svg [data-look="neo"].icon-shape .icon-neo path{stroke:url(#my-svg-gradient);filter:drop-shadow( 1px 2px 2px rgba(185,185,185,1));}#my-svg :root{--mermaid-font-family:"trebuchet ms",verdana,arial,sans-serif;}</style><g><defs><marker id="my-svg_class-aggregationStart" class="marker aggregation class" refX="18" refY="7" markerWidth="190" markerHeight="240" orient="auto"><path d="M 18,7 L9,13 L1,7 L9,1 Z"/></marker></defs><defs><marker id="my-svg_class-aggregationEnd" class="marker aggregation class" refX="1" refY="7" markerWidth="20" markerHeight="28" orient="auto"><path d="M 18,7 L9,13 L1,7 L9,1 Z"/></marker></defs><defs><marker id="my-svg_class-aggregationStart-margin" class="marker aggregation class" refX="15" refY="7" markerWidth="190" markerHeight="240" orient="auto" markerUnits="userSpaceOnUse"><path d="M 18,7 L9,13 L1,7 L9,1 Z" style="stroke-width: 2;"/></marker></defs><defs><marker id="my-svg_class-aggregationEnd-margin" class="marker aggregation class" refX="1" refY="7" markerWidth="20" markerHeight="28" orient="auto" markerUnits="userSpaceOnUse"><path d="M 18,7 L9,13 L1,7 L9,1 Z" style="stroke-width: 2;"/></marker></defs><defs><marker id="my-svg_class-extensionStart" class="marker extension class" refX="18" refY="7" markerWidth="20" markerHeight="28" orient="auto" markerUnits="userSpaceOnUse"><path d="M 1,7 L18,13 V 1 Z"/></marker></defs><defs><marker id="my-svg_class-extensionEnd" class="marker extension class" refX="1" refY="7" markerWidth="20" markerHeight="28" orient="auto"><path d="M 1,1 V 13 L18,7 Z"/></marker></defs><marker id="my-svg_class-extensionStart-margin" class="marker extension class" refX="18" refY="7" markerWidth="20" markerHeight="28" orient="auto" markerUnits="userSpaceOnUse" viewBox="0 0 20 14"><polygon points="10,7 18,13 18,1" style="stroke-width: 2; stroke-dasharray: 0;"/></marker><defs><marker id="my-svg_class-extensionEnd-margin" class="marker extension class" refX="9" refY="7" markerWidth="20" markerHeight="28" orient="auto" markerUnits="userSpaceOnUse" viewBox="0 0 20 14"><polygon points="10,1 10,13 18,7" style="stroke-width: 2; stroke-dasharray: 0;"/></marker></defs><defs><marker id="my-svg_class-compositionStart" class="marker composition class" refX="18" refY="7" markerWidth="190" markerHeight="240" orient="auto"><path d="M 18,7 L9,13 L1,7 L9,1 Z"/></marker></defs><defs><marker id="my-svg_class-compositionEnd" class="marker composition class" refX="1" refY="7" markerWidth="20" markerHeight="28" orient="auto"><path d="M 18,7 L9,13 L1,7 L9,1 Z"/></marker></defs><defs><marker id="my-svg_class-compositionStart-margin" class="marker composition class" refX="15" refY="7" markerWidth="190" markerHeight="240" orient="auto" markerUnits="userSpaceOnUse"><path viewBox="0 0 15 15" d="M 18,7 L9,13 L1,7 L9,1 Z" style="stroke-width: 0;"/></marker></defs><defs><marker id="my-svg_class-compositionEnd-margin" class="marker composition class" refX="3.5" refY="7" markerWidth="20" markerHeight="28" orient="auto" markerUnits="userSpaceOnUse"><path d="M 18,7 L9,13 L1,7 L9,1 Z" style="stroke-width: 0;"/></marker></defs><defs><marker id="my-svg_class-dependencyStart" class="marker dependency class" refX="6" refY="7" markerWidth="190" markerHeight="240" orient="auto"><path d="M 5,7 L9,13 L1,7 L9,1 Z"/></marker></defs><defs><marker id="my-svg_class-dependencyEnd" class="marker dependency class" refX="13" refY="7" markerWidth="20" markerHeight="28" orient="auto"><path d="M 18,7 L9,13 L14,7 L9,1 Z"/></marker></defs><defs><marker id="my-svg_class-dependencyStart-margin" class="marker dependency class" refX="4" refY="7" markerWidth="190" markerHeight="240" orient="auto" markerUnits="userSpaceOnUse"><path d="M 5,7 L9,13 L1,7 L9,1 Z" style="stroke-width: 0;"/></marker></defs><defs><marker id="my-svg_class-dependencyEnd-margin" class="marker dependency class" refX="16" refY="7" markerWidth="20" markerHeight="28" orient="auto" markerUnits="userSpaceOnUse"><path d="M 18,7 L9,13 L14,7 L9,1 Z" style="stroke-width: 0;"/></marker></defs><defs><marker id="my-svg_class-lollipopStart" class="marker lollipop class" refX="13" refY="7" markerWidth="190" markerHeight="240" orient="auto"><circle fill="transparent" cx="7" cy="7" r="6"/></marker></defs><defs><marker id="my-svg_class-lollipopEnd" class="marker lollipop class" refX="1" refY="7" markerWidth="190" markerHeight="240" orient="auto"><circle fill="transparent" cx="7" cy="7" r="6"/></marker></defs><defs><marker id="my-svg_class-lollipopStart-margin" class="marker lollipop class" refX="13" refY="7" markerWidth="190" markerHeight="240" orient="auto" markerUnits="userSpaceOnUse"><circle fill="transparent" cx="7" cy="7" r="6" stroke-width="2"/></marker></defs><defs><marker id="my-svg_class-lollipopEnd-margin" class="marker lollipop class" refX="1" refY="7" markerWidth="190" markerHeight="240" orient="auto" markerUnits="userSpaceOnUse"><circle fill="transparent" cx="7" cy="7" r="6" stroke-width="2"/></marker></defs><g class="root"><g class="clusters"/><g class="edgePaths"><path d="M180.407,56.933L171.51,60.944C162.613,64.955,144.818,72.978,135.921,81.155C127.023,89.333,127.023,97.667,127.023,101.833L127.023,106" id="my-svg-id_Vehicle_Car_1" class="edge-thickness-normal edge-pattern-solid relation" style=";;;" data-edge="true" data-et="edge" data-id="id_Vehicle_Car_1" data-points="W3sieCI6MTk2LjEzMjgxMjUsInkiOjQ5Ljg0MzE1Njk4Njc3NDAwNX0seyJ4IjoxMjcuMDIzNDM3NSwieSI6ODF9LHsieCI6MTI3LjAyMzQzNzUsInkiOjEwNn1d" data-look="classic" marker-start="url(#my-svg_class-extensionStart)"/><path d="M235.711,73.25L235.711,74.542C235.711,75.833,235.711,78.417,235.711,83.875C235.711,89.333,235.711,97.667,235.711,101.833L235.711,106" id="my-svg-id_Vehicle_Truck_2" class="edge-thickness-normal edge-pattern-solid relation" style=";;;" data-edge="true" data-et="edge" data-id="id_Vehicle_Truck_2" data-points="W3sieCI6MjM1LjcxMDkzNzUsInkiOjU2fSx7IngiOjIzNS43MTA5Mzc1LCJ5Ijo4MX0seyJ4IjoyMzUuNzEwOTM3NSwieSI6MTA2fV0=" data-look="classic" marker-start="url(#my-svg_class-extensionStart)"/><path d="M291.539,51.884L305.164,56.737C318.789,61.589,346.039,71.295,359.664,80.314C373.289,89.333,373.289,97.667,373.289,101.833L373.289,106" id="my-svg-id_Vehicle_Motorcycle_3" class="edge-thickness-normal edge-pattern-solid relation" style=";;;" data-edge="true" data-et="edge" data-id="id_Vehicle_Motorcycle_3" data-points="W3sieCI6Mjc1LjI4OTA2MjUsInkiOjQ2LjA5NjE5NTM0MzU1NDh9LHsieCI6MzczLjI4OTA2MjUsInkiOjgxfSx7IngiOjM3My4yODkwNjI1LCJ5IjoxMDZ9XQ==" data-look="classic" marker-start="url(#my-svg_class-extensionStart)"/><path d="M87.661,158.222L82.83,161.685C78,165.148,68.34,172.074,63.51,179.704C58.68,187.333,58.68,195.667,58.68,199.833L58.68,204" id="my-svg-id_Car_SportsCar_4" class="edge-thickness-normal edge-pattern-solid relation" style=";;;" data-edge="true" data-et="edge" data-id="id_Car_SportsCar_4" data-points="W3sieCI6MTAxLjY3OTY4NzUsInkiOjE0OC4xNzA1NTMyNjkzMTg3fSx7IngiOjU4LjY3OTY4NzUsInkiOjE3OX0seyJ4Ijo1OC42Nzk2ODc1LCJ5IjoyMDR9XQ==" data-look="classic" marker-start="url(#my-svg_class-extensionStart)"/><path d="M166.386,158.222L171.216,161.685C176.047,165.148,185.707,172.074,190.537,179.704C195.367,187.333,195.367,195.667,195.367,199.833L195.367,204" id="my-svg-id_Car_Sedan_5" class="edge-thickness-normal edge-pattern-solid relation" style=";;;" data-edge="true" data-et="edge" data-id="id_Car_Sedan_5" data-points="W3sieCI6MTUyLjM2NzE4NzUsInkiOjE0OC4xNzA1NTMyNjkzMTg3fSx7IngiOjE5NS4zNjcxODc1LCJ5IjoxNzl9LHsieCI6MTk1LjM2NzE4NzUsInkiOjIwNH1d" data-look="classic" marker-start="url(#my-svg_class-extensionStart)"/></g><g class="edgeLabels"><g class="edgeLabel"><g class="label" data-id="id_Vehicle_Car_1" transform="translate(0, 0)"><foreignObject width="0" height="0"><div xmlns="http://www.w3.org/1999/xhtml" class="labelBkg" style="display: table-cell; white-space: nowrap; line-height: 1.5; max-width: 200px; text-align: center;"><span class="edgeLabel"></span></div></foreignObject></g></g><g class="edgeLabel"><g class="label" data-id="id_Vehicle_Truck_2" transform="translate(0, 0)"><foreignObject width="0" height="0"><div xmlns="http://www.w3.org/1999/xhtml" class="labelBkg" style="display: table-cell; white-space: nowrap; line-height: 1.5; max-width: 200px; text-align: center;"><span class="edgeLabel"></span></div></foreignObject></g></g><g class="edgeLabel"><g class="label" data-id="id_Vehicle_Motorcycle_3" transform="translate(0, 0)"><foreignObject width="0" height="0"><div xmlns="http://www.w3.org/1999/xhtml" class="labelBkg" style="display: table-cell; white-space: nowrap; line-height: 1.5; max-width: 200px; text-align: center;"><span class="edgeLabel"></span></div></foreignObject></g></g><g class="edgeLabel"><g class="label" data-id="id_Car_SportsCar_4" transform="translate(0, 0)"><foreignObject width="0" height="0"><div xmlns="http://www.w3.org/1999/xhtml" class="labelBkg" style="display: table-cell; white-space: nowrap; line-height: 1.5; max-width: 200px; text-align: center;"><span class="edgeLabel"></span></div></foreignObject></g></g><g class="edgeLabel"><g class="label" data-id="id_Car_Sedan_5" transform="translate(0, 0)"><foreignObject width="0" height="0"><div xmlns="http://www.w3.org/1999/xhtml" class="labelBkg" style="display: table-cell; white-space: nowrap; line-height: 1.5; max-width: 200px; text-align: center;"><span class="edgeLabel"></span></div></foreignObject></g></g></g><g class="nodes"><g class="node default" id="my-svg-classId-Vehicle-0" data-look="classic" transform="translate(235.7109375, 32)"><g class="basic label-container outer-path"><path d="M-39.578125 -24 L39.578125 -24 L39.578125 24 L-39.578125 24" stroke="none" stroke-width="0" fill="#FFFFFF" style=""/><path d="M-39.578125 -24 C-18.69594847002467 -24, 2.1862280599506576 -24, 39.578125 -24 M-39.578125 -24 C-22.49065086787423 -24, -5.40317673574846 -24, 39.578125 -24 M39.578125 -24 C39.578125 -8.829283225869542, 39.578125 6.341433548260916, 39.578125 24 M39.578125 -24 C39.578125 -7.242016578277077, 39.578125 9.515966843445845, 39.578125 24 M39.578125 24 C20.29894268594096 24, 1.0197603718819224 24, -39.578125 24 M39.578125 24 C10.757192549273839 24, -18.063739901452323 24, -39.578125 24 M-39.578125 24 C-39.578125 5.233671943216226, -39.578125 -13.532656113567548, -39.578125 -24 M-39.578125 24 C-39.578125 13.65763082435544, -39.578125 3.31526164871088, -39.578125 -24" stroke="#33698C" stroke-width="1.3" fill="none" stroke-dasharray="0 0" style=""/></g><g class="annotation-group text" transform="translate(0, 0)"/><g class="label-group text" transform="translate(-27.578125, 0)"><g class="label" style="font-weight: bolder" transform="translate(0,-12)"><foreignObject width="55.15625" height="24"><div xmlns="http://www.w3.org/1999/xhtml" style="display: table-cell; white-space: nowrap; line-height: 1.5; max-width: 98px; text-align: center;"><span class="nodeLabel markdown-node-label" style=""><p>Vehicle</p></span></div></foreignObject></g></g><g class="members-group text" transform="translate(-27.578125, 48)"/><g class="methods-group text" transform="translate(-27.578125, 78)"/></g><g class="node default" id="my-svg-classId-Car-1" data-look="classic" transform="translate(127.0234375, 130)"><g class="basic label-container outer-path"><path d="M-25.34375 -24 L25.34375 -24 L25.34375 24 L-25.34375 24" stroke="none" stroke-width="0" fill="#FFFFFF" style=""/><path d="M-25.34375 -24 C-5.955728871763398 -24, 13.432292256473204 -24, 25.34375 -24 M-25.34375 -24 C-12.479616662686063 -24, 0.384516674627875 -24, 25.34375 -24 M25.34375 -24 C25.34375 -14.020184107726774, 25.34375 -4.040368215453547, 25.34375 24 M25.34375 -24 C25.34375 -5.358228259136403, 25.34375 13.283543481727193, 25.34375 24 M25.34375 24 C6.494175051936743 24, -12.355399896126514 24, -25.34375 24 M25.34375 24 C5.794222033996686 24, -13.755305932006628 24, -25.34375 24 M-25.34375 24 C-25.34375 6.037402970130742, -25.34375 -11.925194059738516, -25.34375 -24 M-25.34375 24 C-25.34375 9.13920185750898, -25.34375 -5.721596284982041, -25.34375 -24" stroke="#33698C" stroke-width="1.3" fill="none" stroke-dasharray="0 0" style=""/></g><g class="annotation-group text" transform="translate(0, 0)"/><g class="label-group text" transform="translate(-13.34375, 0)"><g class="label" style="font-weight: bolder" transform="translate(0,-12)"><foreignObject width="26.6875" height="24"><div xmlns="http://www.w3.org/1999/xhtml" style="display: table-cell; white-space: nowrap; line-height: 1.5; max-width: 74px; text-align: center;"><span class="nodeLabel markdown-node-label" style=""><p>Car</p></span></div></foreignObject></g></g><g class="members-group text" transform="translate(-13.34375, 48)"/><g class="methods-group text" transform="translate(-13.34375, 78)"/></g><g class="node default" id="my-svg-classId-Truck-2" data-look="classic" transform="translate(235.7109375, 130)"><g class="basic label-container outer-path"><path d="M-33.34375 -24 L33.34375 -24 L33.34375 24 L-33.34375 24" stroke="none" stroke-width="0" fill="#FFFFFF" style=""/><path d="M-33.34375 -24 C-10.99569447508166 -24, 11.35236104983668 -24, 33.34375 -24 M-33.34375 -24 C-16.114255973881725 -24, 1.115238052236549 -24, 33.34375 -24 M33.34375 -24 C33.34375 -11.665494686522564, 33.34375 0.6690106269548721, 33.34375 24 M33.34375 -24 C33.34375 -10.699955369702597, 33.34375 2.6000892605948067, 33.34375 24 M33.34375 24 C13.27067876664416 24, -6.80239246671168 24, -33.34375 24 M33.34375 24 C11.535457303481554 24, -10.272835393036893 24, -33.34375 24 M-33.34375 24 C-33.34375 14.159427931734573, -33.34375 4.318855863469146, -33.34375 -24 M-33.34375 24 C-33.34375 10.611457392831916, -33.34375 -2.777085214336168, -33.34375 -24" stroke="#33698C" stroke-width="1.3" fill="none" stroke-dasharray="0 0" style=""/></g><g class="annotation-group text" transform="translate(0, 0)"/><g class="label-group text" transform="translate(-21.34375, 0)"><g class="label" style="font-weight: bolder" transform="translate(0,-12)"><foreignObject width="42.6875" height="24"><div xmlns="http://www.w3.org/1999/xhtml" style="display: table-cell; white-space: nowrap; line-height: 1.5; max-width: 88px; text-align: center;"><span class="nodeLabel markdown-node-label" style=""><p>Truck</p></span></div></foreignObject></g></g><g class="members-group text" transform="translate(-21.34375, 48)"/><g class="methods-group text" transform="translate(-21.34375, 78)"/></g><g class="node default" id="my-svg-classId-Motorcycle-3" data-look="classic" transform="translate(373.2890625, 130)"><g class="basic label-container outer-path"><path d="M-54.234375 -24 L54.234375 -24 L54.234375 24 L-54.234375 24" stroke="none" stroke-width="0" fill="#FFFFFF" style=""/><path d="M-54.234375 -24 C-27.54050471133635 -24, -0.8466344226727003 -24, 54.234375 -24 M-54.234375 -24 C-26.62623190155236 -24, 0.9819111968952825 -24, 54.234375 -24 M54.234375 -24 C54.234375 -9.656742481202938, 54.234375 4.686515037594123, 54.234375 24 M54.234375 -24 C54.234375 -14.363581038913402, 54.234375 -4.727162077826804, 54.234375 24 M54.234375 24 C20.716832847721733 24, -12.800709304556534 24, -54.234375 24 M54.234375 24 C12.548540405973277 24, -29.137294188053446 24, -54.234375 24 M-54.234375 24 C-54.234375 11.27177681918749, -54.234375 -1.4564463616250194, -54.234375 -24 M-54.234375 24 C-54.234375 7.811477376402387, -54.234375 -8.377045247195227, -54.234375 -24" stroke="#33698C" stroke-width="1.3" fill="none" stroke-dasharray="0 0" style=""/></g><g class="annotation-group text" transform="translate(0, 0)"/><g class="label-group text" transform="translate(-42.234375, 0)"><g class="label" style="font-weight: bolder" transform="translate(0,-12)"><foreignObject width="84.46875" height="24"><div xmlns="http://www.w3.org/1999/xhtml" style="display: table-cell; white-space: nowrap; line-height: 1.5; max-width: 124px; text-align: center;"><span class="nodeLabel markdown-node-label" style=""><p>Motorcycle</p></span></div></foreignObject></g></g><g class="members-group text" transform="translate(-42.234375, 48)"/><g class="methods-group text" transform="translate(-42.234375, 78)"/></g><g class="node default" id="my-svg-classId-SportsCar-4" data-look="classic" transform="translate(58.6796875, 228)"><g class="basic label-container outer-path"><path d="M-50.6796875 -24 L50.6796875 -24 L50.6796875 24 L-50.6796875 24" stroke="none" stroke-width="0" fill="#FFFFFF" style=""/><path d="M-50.6796875 -24 C-18.915560147494027 -24, 12.848567205011946 -24, 50.6796875 -24 M-50.6796875 -24 C-29.220238071434274 -24, -7.7607886428685475 -24, 50.6796875 -24 M50.6796875 -24 C50.6796875 -9.798407995178835, 50.6796875 4.403184009642331, 50.6796875 24 M50.6796875 -24 C50.6796875 -11.402134482777553, 50.6796875 1.1957310344448935, 50.6796875 24 M50.6796875 24 C16.309997450691476 24, -18.059692598617048 24, -50.6796875 24 M50.6796875 24 C10.762326235333163 24, -29.155035029333675 24, -50.6796875 24 M-50.6796875 24 C-50.6796875 5.0397165895310465, -50.6796875 -13.920566820937907, -50.6796875 -24 M-50.6796875 24 C-50.6796875 13.605134491363334, -50.6796875 3.2102689827266673, -50.6796875 -24" stroke="#33698C" stroke-width="1.3" fill="none" stroke-dasharray="0 0" style=""/></g><g class="annotation-group text" transform="translate(0, 0)"/><g class="label-group text" transform="translate(-38.6796875, 0)"><g class="label" style="font-weight: bolder" transform="translate(0,-12)"><foreignObject width="77.359375" height="24"><div xmlns="http://www.w3.org/1999/xhtml" style="display: table-cell; white-space: nowrap; line-height: 1.5; max-width: 115px; text-align: center;"><span class="nodeLabel markdown-node-label" style=""><p>SportsCar</p></span></div></foreignObject></g></g><g class="members-group text" transform="translate(-38.6796875, 48)"/><g class="methods-group text" transform="translate(-38.6796875, 78)"/></g><g class="node default" id="my-svg-classId-Sedan-5" data-look="classic" transform="translate(195.3671875, 228)"><g class="basic label-container outer-path"><path d="M-36.0078125 -24 L36.0078125 -24 L36.0078125 24 L-36.0078125 24" stroke="none" stroke-width="0" fill="#FFFFFF" style=""/><path d="M-36.0078125 -24 C-16.263133452115678 -24, 3.481545595768644 -24, 36.0078125 -24 M-36.0078125 -24 C-13.424950391600557 -24, 9.157911716798885 -24, 36.0078125 -24 M36.0078125 -24 C36.0078125 -11.906413525880719, 36.0078125 0.1871729482385618, 36.0078125 24 M36.0078125 -24 C36.0078125 -12.066798032945904, 36.0078125 -0.13359606589180828, 36.0078125 24 M36.0078125 24 C21.57216478552781 24, 7.136517071055625 24, -36.0078125 24 M36.0078125 24 C21.47607230206216 24, 6.944332104124321 24, -36.0078125 24 M-36.0078125 24 C-36.0078125 11.9703738521373, -36.0078125 -0.05925229572540047, -36.0078125 -24 M-36.0078125 24 C-36.0078125 9.12071123959516, -36.0078125 -5.7585775208096805, -36.0078125 -24" stroke="#33698C" stroke-width="1.3" fill="none" stroke-dasharray="0 0" style=""/></g><g class="annotation-group text" transform="translate(0, 0)"/><g class="label-group text" transform="translate(-24.0078125, 0)"><g class="label" style="font-weight: bolder" transform="translate(0,-12)"><foreignObject width="48.015625" height="24"><div xmlns="http://www.w3.org/1999/xhtml" style="display: table-cell; white-space: nowrap; line-height: 1.5; max-width: 89px; text-align: center;"><span class="nodeLabel markdown-node-label" style=""><p>Sedan</p></span></div></foreignObject></g></g><g class="members-group text" transform="translate(-24.0078125, 48)"/><g class="methods-group text" transform="translate(-24.0078125, 78)"/></g></g></g></g><defs><filter id="my-svg-drop-shadow" height="130%" width="130%"><feDropShadow dx="4" dy="4" stdDeviation="0" flood-opacity="0.06" flood-color="#000000"/></filter></defs><defs><filter id="my-svg-drop-shadow-small" height="150%" width="150%"><feDropShadow dx="2" dy="2" stdDeviation="0" flood-opacity="0.06" flood-color="#000000"/></filter></defs><linearGradient id="my-svg-gradient" gradientUnits="objectBoundingBox" x1="0%" y1="0%" x2="100%" y2="0%"><stop offset="0%" stop-color="#33698C" stop-opacity="1"/><stop offset="100%" stop-color="hsl(42.8571428571, 0%, 82.9411764706%)" stop-opacity="1"/></linearGradient></svg>