<svg id="my-svg" width="100%" xmlns="http://www.w3.org/2000/svg" xmlns:xlink="http://www.w3.org/1999/xlink" class="classDiagram" style="max-width: 580.328px; background-color: transparent;" viewBox="0 0 580.328125 162" role="graphics-document document" aria-roledescription="class"><style>#my-svg{font-family:Segoe UI,Helvetica Neue,Arial,sans-serif;font-size:16px;fill:#1E2833;}@keyframes edge-animation-frame{from{stroke-dashoffset:0;}}@keyframes dash{to{stroke-dashoffset:0;}}#my-svg .edge-animation-slow{stroke-dasharray:9,5!important;stroke-dashoffset:900;animation:dash 50s linear infinite;stroke-linecap:round;}#my-svg .edge-animation-fast{stroke-dasharray:9,5!important;stroke-dashoffset:900;animation:dash 20s linear infinite;stroke-linecap:round;}#my-svg .error-icon{fill:#FBFAF7;}#my-svg .error-text{fill:#040508;stroke:#040508;}#my-svg .edge-thickness-normal{stroke-width:1px;}#my-svg .edge-thickness-thick{stroke-width:3.5px;}#my-svg .edge-pattern-solid{stroke-dasharray:0;}#my-svg .edge-thickness-invisible{stroke-width:0;fill:none;}#my-svg .edge-pattern-dashed{stroke-dasharray:3;}#my-svg .edge-pattern-dotted{stroke-dasharray:2;}#my-svg .marker{fill:#33698C;stroke:#33698C;}#my-svg .marker.cross{stroke:#33698C;}#my-svg svg{font-family:Segoe UI,Helvetica Neue,Arial,sans-serif;font-size:16px;}#my-svg p{margin:0;}#my-svg g.classGroup text{fill:#33698C;stroke:none;font-family:Segoe UI,Helvetica Neue,Arial,sans-serif;font-size:10px;}#my-svg g.classGroup text .title{font-weight:bolder;}#my-svg .cluster-label text{fill:#040508;}#my-svg .cluster-label span{color:#040508;}#my-svg .cluster-label span p{background-color:transparent;}#my-svg .cluster rect{fill:#F4F0E6;stroke:#DED8C9;stroke-width:1px;}#my-svg .cluster text{fill:#040508;}#my-svg .cluster span{color:#040508;}#my-svg .nodeLabel,#my-svg .edgeLabel{color:#1E2833;}#my-svg .noteLabel .nodeLabel,#my-svg .noteLabel .edgeLabel{color:#46536B;}#my-svg .edgeLabel .label rect{fill:#FFFFFF;}#my-svg .label text{fill:#1E2833;}#my-svg .labelBkg{background:#FFFFFF;}#my-svg .edgeLabel .label span{background:#FFFFFF;}#my-svg .classTitle{font-weight:bolder;}#my-svg .node rect,#my-svg .node circle,#my-svg .node ellipse,#my-svg .node polygon,#my-svg .node path{fill:#FFFFFF;stroke:#33698C;stroke-width:1;}#my-svg .divider{stroke:#33698C;stroke-width:1;}#my-svg g.clickable{cursor:pointer;}#my-svg g.classGroup rect{fill:#FFFFFF;stroke:#33698C;}#my-svg g.classGroup line{stroke:#33698C;stroke-width:1;}#my-svg .classLabel .box{stroke:none;stroke-width:0;fill:#FFFFFF;opacity:0.5;}#my-svg .classLabel .label{fill:#33698C;font-size:10px;}#my-svg .relation{stroke:#33698C;stroke-width:1;fill:none;}#my-svg .dashed-line{stroke-dasharray:3;}#my-svg .dotted-line{stroke-dasharray:1 2;}#my-svg [id$="-compositionStart"],#my-svg .composition{fill:#33698C!important;stroke:#33698C!important;stroke-width:1;}#my-svg [id$="-compositionEnd"],#my-svg .composition{fill:#33698C!important;stroke:#33698C!important;stroke-width:1;}#my-svg [id$="-dependencyStart"],#my-svg .dependency{fill:#33698C!important;stroke:#33698C!important;stroke-width:1;}#my-svg [id$="-dependencyEnd"],#my-svg .dependency{fill:#33698C!important;stroke:#33698C!important;stroke-width:1;}#my-svg [id$="-extensionStart"],#my-svg .extension{fill:transparent!important;stroke:#33698C!important;stroke-width:1;}#my-svg [id$="-extensionEnd"],#my-svg .extension{fill:transparent!important;stroke:#33698C!important;stroke-width:1;}#my-svg [id$="-aggregationStart"],#my-svg .aggregation{fill:transparent!important;stroke:#33698C!important;stroke-width:1;}#my-svg [id$="-aggregationEnd"],#my-svg .aggregation{fill:transparent!important;stroke:#33698C!important;stroke-width:1;}#my-svg [id$="-lollipopStart"],#my-svg .lollipop{fill:#FFFFFF!important;stroke:#33698C!important;stroke-width:1;}#my-svg [id$="-lollipopEnd"],#my-svg .lollipop{fill:#FFFFFF!important;stroke:#33698C!important;stroke-width:1;}#my-svg .edgeTerminals{font-size:11px;line-height:initial;}#my-svg .classTitleText{text-anchor:middle;font-size:18px;fill:#1E2833;}#my-svg .edgeLabel[data-look="neo"]{background-color:#FBFAF7;text-align:center;}#my-svg .edgeLabel[data-look="neo"] p{background-color:#FBFAF7;}#my-svg .edgeLabel[data-look="neo"] rect{opacity:0.5;background-color:#FBFAF7;fill:#FBFAF7;}#my-svg .label-icon{display:inline-block;height:1em;overflow:visible;vertical-align:-0.125em;}#my-svg .node .label-icon path{fill:currentColor;stroke:revert;stroke-width:revert;}#my-svg .node .neo-node{stroke:#33698C;}#my-svg [data-look="neo"].node rect,#my-svg [data-look="neo"].cluster rect,#my-svg [data-look="neo"].node polygon{stroke:url(#my-svg-gradient);filter:drop-shadow( 1px 2px 2px rgba(185,185,185,1));}#my-svg [data-look="neo"].swimlane.cluster rect{filter:none;}#my-svg [data-look="neo"].node path{stroke:url(#my-svg-gradient);stroke-width:1px;}#my-svg [data-look="neo"].node .outer-path{filter:drop-shadow( 1px 2px 2px rgba(185,185,185,1));}#my-svg [data-look="neo"].node .neo-line path{stroke:#33698C;filter:none;}#my-svg [data-look="neo"].node circle{stroke:url(#my-svg-gradient);filter:drop-shadow( 1px 2px 2px rgba(185,185,185,1));}#my-svg [data-look="neo"].node circle .state-start{fill:#000000;}#my-svg [data-look="neo"].icon-shape .icon{fill:url(#my-svg-gradient);filter:drop-shadow( 1px 2px 2px rgba(185,185,185,1));}#my-svg [data-look="neo"].icon-shape .icon-neo path{stroke:url(#my-svg-gradient);filter:drop-shadow( 1px 2px 2px rgba(185,185,185,1));}#my-svg :root{--mermaid-font-family:"trebuchet ms",verdana,arial,sans-serif;}</style><g><defs><marker id="my-svg_class-aggregationStart" class="marker aggregation class" refX="18" refY="7" markerWidth="190" markerHeight="240" orient="auto"><path d="M 18,7 L9,13 L1,7 L9,1 Z"/></marker></defs><defs><marker id="my-svg_class-aggregationEnd" class="marker aggregation class" refX="1" refY="7" markerWidth="20" markerHeight="28" orient="auto"><path d="M 18,7 L9,13 L1,7 L9,1 Z"/></marker></defs><defs><marker id="my-svg_class-aggregationStart-margin" class="marker aggregation class" refX="15" refY="7" markerWidth="190" markerHeight="240" orient="auto" markerUnits="userSpaceOnUse"><path d="M 18,7 L9,13 L1,7 L9,1 Z" style="stroke-width: 2;"/></marker></defs><defs><marker id="my-svg_class-aggregationEnd-margin" class="marker aggregation class" refX="1" refY="7" markerWidth="20" markerHeight="28" orient="auto" markerUnits="userSpaceOnUse"><path d="M 18,7 L9,13 L1,7 L9,1 Z" style="stroke-width: 2;"/></marker></defs><defs><marker id="my-svg_class-extensionStart" class="marker extension class" refX="18" refY="7" markerWidth="20" markerHeight="28" orient="auto" markerUnits="userSpaceOnUse"><path d="M 1,7 L18,13 V 1 Z"/></marker></defs><defs><marker id="my-svg_class-extensionEnd" class="marker extension class" refX="1" refY="7" markerWidth="20" markerHeight="28" orient="auto"><path d="M 1,1 V 13 L18,7 Z"/></marker></defs><marker id="my-svg_class-extensionStart-margin" class="marker extension class" refX="18" refY="7" markerWidth="20" markerHeight="28" orient="auto" markerUnits="userSpaceOnUse" viewBox="0 0 20 14"><polygon points="10,7 18,13 18,1" style="stroke-width: 2; stroke-dasharray: 0;"/></marker><defs><marker id="my-svg_class-extensionEnd-margin" class="marker extension class" refX="9" refY="7" markerWidth="20" markerHeight="28" orient="auto" markerUnits="userSpaceOnUse" viewBox="0 0 20 14"><polygon points="10,1 10,13 18,7" style="stroke-width: 2; stroke-dasharray: 0;"/></marker></defs><defs><marker id="my-svg_class-compositionStart" class="marker composition class" refX="18" refY="7" markerWidth="190" markerHeight="240" orient="auto"><path d="M 18,7 L9,13 L1,7 L9,1 Z"/></marker></defs><defs><marker id="my-svg_class-compositionEnd" class="marker composition class" refX="1" refY="7" markerWidth="20" markerHeight="28" orient="auto"><path d="M 18,7 L9,13 L1,7 L9,1 Z"/></marker></defs><defs><marker id="my-svg_class-compositionStart-margin" class="marker composition class" refX="15" refY="7" markerWidth="190" markerHeight="240" orient="auto" markerUnits="userSpaceOnUse"><path viewBox="0 0 15 15" d="M 18,7 L9,13 L1,7 L9,1 Z" style="stroke-width: 0;"/></marker></defs><defs><marker id="my-svg_class-compositionEnd-margin" class="marker composition class" refX="3.5" refY="7" markerWidth="20" markerHeight="28" orient="auto" markerUnits="userSpaceOnUse"><path d="M 18,7 L9,13 L1,7 L9,1 Z" style="stroke-width: 0;"/></marker></defs><defs><marker id="my-svg_class-dependencyStart" class="marker dependency class" refX="6" refY="7" markerWidth="190" markerHeight="240" orient="auto"><path d="M 5,7 L9,13 L1,7 L9,1 Z"/></marker></defs><defs><marker id="my-svg_class-dependencyEnd" class="marker dependency class" refX="13" refY="7" markerWidth="20" markerHeight="28" orient="auto"><path d="M 18,7 L9,13 L14,7 L9,1 Z"/></marker></defs><defs><marker id="my-svg_class-dependencyStart-margin" class="marker dependency class" refX="4" refY="7" markerWidth="190" markerHeight="240" orient="auto" markerUnits="userSpaceOnUse"><path d="M 5,7 L9,13 L1,7 L9,1 Z" style="stroke-width: 0;"/></marker></defs><defs><marker id="my-svg_class-dependencyEnd-margin" class="marker dependency class" refX="16" refY="7" markerWidth="20" markerHeight="28" orient="auto" markerUnits="userSpaceOnUse"><path d="M 18,7 L9,13 L14,7 L9,1 Z" style="stroke-width: 0;"/></marker></defs><defs><marker id="my-svg_class-lollipopStart" class="marker lollipop class" refX="13" refY="7" markerWidth="190" markerHeight="240" orient="auto"><circle fill="transparent" cx="7" cy="7" r="6"/></marker></defs><defs><marker id="my-svg_class-lollipopEnd" class="marker lollipop class" refX="1" refY="7" markerWidth="190" markerHeight="240" orient="auto"><circle fill="transparent" cx="7" cy="7" r="6"/></marker></defs><defs><marker id="my-svg_class-lollipopStart-margin" class="marker lollipop class" refX="13" refY="7" markerWidth="190" markerHeight="240" orient="auto" markerUnits="userSpaceOnUse"><circle fill="transparent" cx="7" cy="7" r="6" stroke-width="2"/></marker></defs><defs><marker id="my-svg_class-lollipopEnd-margin" class="marker lollipop class" refX="1" refY="7" markerWidth="190" markerHeight="240" orient="auto" markerUnits="userSpaceOnUse"><circle fill="transparent" cx="7" cy="7" r="6" stroke-width="2"/></marker></defs><g class="root"><g class="clusters"/><g class="edgePaths"><path d="M204.602,50L204.602,55.167C204.602,60.333,204.602,70.667,245.702,83.451C286.802,96.235,369.003,111.47,410.103,119.087L451.203,126.704" id="my-svg-edgeNote0" class="edge-thickness-normal edge-pattern-dotted relation" style="fill: none;;;fill: none" data-edge="true" data-et="edge" data-id="edgeNote0" data-points="W3sieCI6MjA0LjYwMTU2MjUsInkiOjUwfSx7IngiOjIwNC42MDE1NjI1LCJ5Ijo4MX0seyJ4Ijo0NTEuMjAzMTI1LCJ5IjoxMjYuNzA0NDcwOTA4MDcwMDl9XQ==" data-look="classic"/><path d="M468.984,73.25L468.984,74.542C468.984,75.833,468.984,78.417,468.984,83.875C468.984,89.333,468.984,97.667,468.984,101.833L468.984,106" id="my-svg-id_A_C_1" class="edge-thickness-normal edge-pattern-solid relation" style=";;;" data-edge="true" data-et="edge" data-id="id_A_C_1" data-points="W3sieCI6NDY4Ljk4NDM3NSwieSI6NTZ9LHsieCI6NDY4Ljk4NDM3NSwieSI6ODF9LHsieCI6NDY4Ljk4NDM3NSwieSI6MTA2fV0=" data-look="classic" marker-start="url(#my-svg_class-extensionStart)"/><path d="M554.547,73.25L554.547,74.542C554.547,75.833,554.547,78.417,543.25,86.178C531.953,93.939,509.359,106.878,498.063,113.348L486.766,119.817" id="my-svg-id_B_C_2" class="edge-thickness-normal edge-pattern-solid relation" style=";;;" data-edge="true" data-et="edge" data-id="id_B_C_2" data-points="W3sieCI6NTU0LjU0Njg3NSwieSI6NTZ9LHsieCI6NTU0LjU0Njg3NSwieSI6ODF9LHsieCI6NDg2Ljc2NTYyNSwieSI6MTE5LjgxNzAxOTcyMjQyNTEzfV0=" data-look="classic" marker-start="url(#my-svg_class-extensionStart)"/></g><g class="edgeLabels"><g class="edgeLabel"><g class="label" data-id="edgeNote0" transform="translate(0, 0)"><foreignObject width="0" height="0"><div xmlns="http://www.w3.org/1999/xhtml" class="labelBkg" style="display: table-cell; white-space: nowrap; line-height: 1.5; max-width: 200px; text-align: center;"><span class="edgeLabel"></span></div></foreignObject></g></g><g class="edgeLabel"><g class="label" data-id="id_A_C_1" transform="translate(0, 0)"><foreignObject width="0" height="0"><div xmlns="http://www.w3.org/1999/xhtml" class="labelBkg" style="display: table-cell; white-space: nowrap; line-height: 1.5; max-width: 200px; text-align: center;"><span class="edgeLabel"></span></div></foreignObject></g></g><g class="edgeLabel"><g class="label" data-id="id_B_C_2" transform="translate(0, 0)"><foreignObject width="0" height="0"><div xmlns="http://www.w3.org/1999/xhtml" class="labelBkg" style="display: table-cell; white-space: nowrap; line-height: 1.5; max-width: 200px; text-align: center;"><span class="edgeLabel"></span></div></foreignObject></g></g></g><g class="nodes"><g class="node default" id="my-svg-classId-A-0" data-look="classic" transform="translate(468.984375, 32)"><g class="basic label-container outer-path"><path d="M-17.78125 -24 L17.78125 -24 L17.78125 24 L-17.78125 24" stroke="none" stroke-width="0" fill="#FFFFFF" style=""/><path d="M-17.78125 -24 C-6.91967369921365 -24, 3.9419026015727 -24, 17.78125 -24 M-17.78125 -24 C-4.136451861316486 -24, 9.508346277367028 -24, 17.78125 -24 M17.78125 -24 C17.78125 -14.3065927833617, 17.78125 -4.6131855667233985, 17.78125 24 M17.78125 -24 C17.78125 -8.824360579019569, 17.78125 6.351278841960863, 17.78125 24 M17.78125 24 C4.292115683058356 24, -9.197018633883289 24, -17.78125 24 M17.78125 24 C6.138285911945815 24, -5.504678176108371 24, -17.78125 24 M-17.78125 24 C-17.78125 10.07635462587258, -17.78125 -3.8472907482548386, -17.78125 -24 M-17.78125 24 C-17.78125 7.579811487254339, -17.78125 -8.840377025491321, -17.78125 -24" stroke="#33698C" stroke-width="1.3" fill="none" stroke-dasharray="0 0" style=""/></g><g class="annotation-group text" transform="translate(0, 0)"/><g class="label-group text" transform="translate(-5.78125, 0)"><g class="label" style="font-weight: bolder" transform="translate(0,-12)"><foreignObject width="11.5625" height="24"><div xmlns="http://www.w3.org/1999/xhtml" style="display: table-cell; white-space: nowrap; line-height: 1.5; max-width: 62px; text-align: center;"><span class="nodeLabel markdown-node-label" style=""><p>A</p></span></div></foreignObject></g></g><g class="members-group text" transform="translate(-5.78125, 48)"/><g class="methods-group text" transform="translate(-5.78125, 78)"/></g><g class="node default" id="my-svg-classId-C-1" data-look="classic" transform="translate(468.984375, 130)"><g class="basic label-container outer-path"><path d="M-17.78125 -24 L17.78125 -24 L17.78125 24 L-17.78125 24" stroke="none" stroke-width="0" fill="#FFFFFF" style=""/><path d="M-17.78125 -24 C-7.814735624598633 -24, 2.151778750802734 -24, 17.78125 -24 M-17.78125 -24 C-9.47844903244612 -24, -1.1756480648922398 -24, 17.78125 -24 M17.78125 -24 C17.78125 -11.396177281938881, 17.78125 1.2076454361222382, 17.78125 24 M17.78125 -24 C17.78125 -9.48458887800362, 17.78125 5.030822243992759, 17.78125 24 M17.78125 24 C7.698347376628149 24, -2.3845552467437017 24, -17.78125 24 M17.78125 24 C4.835619135608324 24, -8.110011728783352 24, -17.78125 24 M-17.78125 24 C-17.78125 12.575863737988257, -17.78125 1.1517274759765144, -17.78125 -24 M-17.78125 24 C-17.78125 11.034384029235262, -17.78125 -1.9312319415294752, -17.78125 -24" stroke="#33698C" stroke-width="1.3" fill="none" stroke-dasharray="0 0" style=""/></g><g class="annotation-group text" transform="translate(0, 0)"/><g class="label-group text" transform="translate(-5.78125, 0)"><g class="label" style="font-weight: bolder" transform="translate(0,-12)"><foreignObject width="11.5625" height="24"><div xmlns="http://www.w3.org/1999/xhtml" style="display: table-cell; white-space: nowrap; line-height: 1.5; max-width: 61px; text-align: center;"><span class="nodeLabel markdown-node-label" style=""><p>C</p></span></div></foreignObject></g></g><g class="members-group text" transform="translate(-5.78125, 48)"/><g class="methods-group text" transform="translate(-5.78125, 78)"/></g><g class="node default" id="my-svg-classId-B-2" data-look="classic" transform="translate(554.546875, 32)"><g class="basic label-container outer-path"><path d="M-17.78125 -24 L17.78125 -24 L17.78125 24 L-17.78125 24" stroke="none" stroke-width="0" fill="#FFFFFF" style=""/><path d="M-17.78125 -24 C-6.899462423903241 -24, 3.9823251521935177 -24, 17.78125 -24 M-17.78125 -24 C-8.599485081460319 -24, 0.582279837079362 -24, 17.78125 -24 M17.78125 -24 C17.78125 -9.471935195626608, 17.78125 5.056129608746783, 17.78125 24 M17.78125 -24 C17.78125 -5.55370931083646, 17.78125 12.89258137832708, 17.78125 24 M17.78125 24 C4.81409404135734 24, -8.15306191728532 24, -17.78125 24 M17.78125 24 C7.644273819559219 24, -2.4927023608815624 24, -17.78125 24 M-17.78125 24 C-17.78125 13.102955654419151, -17.78125 2.205911308838303, -17.78125 -24 M-17.78125 24 C-17.78125 8.477119304054087, -17.78125 -7.045761391891826, -17.78125 -24" stroke="#33698C" stroke-width="1.3" fill="none" stroke-dasharray="0 0" style=""/></g><g class="annotation-group text" transform="translate(0, 0)"/><g class="label-group text" transform="translate(-5.78125, 0)"><g class="label" style="font-weight: bolder" transform="translate(0,-12)"><foreignObject width="11.5625" height="24"><div xmlns="http://www.w3.org/1999/xhtml" style="display: table-cell; white-space: nowrap; line-height: 1.5; max-width: 61px; text-align: center;"><span class="nodeLabel markdown-node-label" style=""><p>B</p></span></div></foreignObject></g></g><g class="members-group text" transform="translate(-5.78125, 48)"/><g class="methods-group text" transform="translate(-5.78125, 78)"/></g><g class="node undefined" id="my-svg-note0" data-look="classic" transform="translate(204.6015625, 32)"><g class="basic label-container outer-path"><path d="M-196.6015625 -18 L196.6015625 -18 L196.6015625 18 L-196.6015625 18" stroke="none" stroke-width="0" fill="#F4F0E6" style="fill:#F4F0E6 !important;stroke:#DED8C9 !important"/><path d="M-196.6015625 -18 C-60.711185543334466 -18, 75.17919141333107 -18, 196.6015625 -18 M-196.6015625 -18 C-64.13029465861894 -18, 68.34097318276213 -18, 196.6015625 -18 M196.6015625 -18 C196.6015625 -10.058395184012298, 196.6015625 -2.1167903680245974, 196.6015625 18 M196.6015625 -18 C196.6015625 -4.119493480007501, 196.6015625 9.761013039984999, 196.6015625 18 M196.6015625 18 C96.9662212969623 18, -2.6691199060753945 18, -196.6015625 18 M196.6015625 18 C54.35080480229098 18, -87.89995289541804 18, -196.6015625 18 M-196.6015625 18 C-196.6015625 8.581924557612249, -196.6015625 -0.8361508847755026, -196.6015625 -18 M-196.6015625 18 C-196.6015625 3.693067437843535, -196.6015625 -10.61386512431293, -196.6015625 -18" stroke="#DED8C9" stroke-width="1.3" fill="none" stroke-dasharray="0 0" style="fill:#F4F0E6 !important;stroke:#DED8C9 !important"/></g><g class="label noteLabel" style="text-align:left !important;white-space:nowrap !important" transform="translate(-190.6015625, -12)"><rect/><foreignObject width="381.203125" height="24"><div style="text-align: center; white-space: break-spaces; display: table; line-height: 1.5; max-width: 200px; width: 200px;" xmlns="http://www.w3.org/1999/xhtml"><span style="text-align:left !important;white-space:nowrap !important" class="nodeLabel markdown-node-label"><p>NOT allowed for classes in Java — only via interfaces</p></span></div></foreignObject></g></g></g></g></g><defs><filter id="my-svg-drop-shadow" height="130%" width="130%"><feDropShadow dx="4" dy="4" stdDeviation="0" flood-opacity="0.06" flood-color="#000000"/></filter></defs><defs><filter id="my-svg-drop-shadow-small" height="150%" width="150%"><feDropShadow dx="2" dy="2" stdDeviation="0" flood-opacity="0.06" flood-color="#000000"/></filter></defs><linearGradient id="my-svg-gradient" gradientUnits="objectBoundingBox" x1="0%" y1="0%" x2="100%" y2="0%"><stop offset="0%" stop-color="#33698C" stop-opacity="1"/><stop offset="100%" stop-color="hsl(42.8571428571, 0%, 82.9411764706%)" stop-opacity="1"/></linearGradient></svg>