<svg id="my-svg" width="100%" xmlns="http://www.w3.org/2000/svg" xmlns:xlink="http://www.w3.org/1999/xlink" class="classDiagram" style="max-width: 137.125px; background-color: transparent;" viewBox="0 0 137.125 260" role="graphics-document document" aria-roledescription="class"><style>#my-svg{font-family:Segoe UI,Helvetica Neue,Arial,sans-serif;font-size:16px;fill:#1E2833;}@keyframes edge-animation-frame{from{stroke-dashoffset:0;}}@keyframes dash{to{stroke-dashoffset:0;}}#my-svg .edge-animation-slow{stroke-dasharray:9,5!important;stroke-dashoffset:900;animation:dash 50s linear infinite;stroke-linecap:round;}#my-svg .edge-animation-fast{stroke-dasharray:9,5!important;stroke-dashoffset:900;animation:dash 20s linear infinite;stroke-linecap:round;}#my-svg .error-icon{fill:#FBFAF7;}#my-svg .error-text{fill:#040508;stroke:#040508;}#my-svg .edge-thickness-normal{stroke-width:1px;}#my-svg .edge-thickness-thick{stroke-width:3.5px;}#my-svg .edge-pattern-solid{stroke-dasharray:0;}#my-svg .edge-thickness-invisible{stroke-width:0;fill:none;}#my-svg .edge-pattern-dashed{stroke-dasharray:3;}#my-svg .edge-pattern-dotted{stroke-dasharray:2;}#my-svg .marker{fill:#33698C;stroke:#33698C;}#my-svg .marker.cross{stroke:#33698C;}#my-svg svg{font-family:Segoe UI,Helvetica Neue,Arial,sans-serif;font-size:16px;}#my-svg p{margin:0;}#my-svg g.classGroup text{fill:#33698C;stroke:none;font-family:Segoe UI,Helvetica Neue,Arial,sans-serif;font-size:10px;}#my-svg g.classGroup text .title{font-weight:bolder;}#my-svg .cluster-label text{fill:#040508;}#my-svg .cluster-label span{color:#040508;}#my-svg .cluster-label span p{background-color:transparent;}#my-svg .cluster rect{fill:#F4F0E6;stroke:#DED8C9;stroke-width:1px;}#my-svg .cluster text{fill:#040508;}#my-svg .cluster span{color:#040508;}#my-svg .nodeLabel,#my-svg .edgeLabel{color:#1E2833;}#my-svg .noteLabel .nodeLabel,#my-svg .noteLabel .edgeLabel{color:#46536B;}#my-svg .edgeLabel .label rect{fill:#FFFFFF;}#my-svg .label text{fill:#1E2833;}#my-svg .labelBkg{background:#FFFFFF;}#my-svg .edgeLabel .label span{background:#FFFFFF;}#my-svg .classTitle{font-weight:bolder;}#my-svg .node rect,#my-svg .node circle,#my-svg .node ellipse,#my-svg .node polygon,#my-svg .node path{fill:#FFFFFF;stroke:#33698C;stroke-width:1;}#my-svg .divider{stroke:#33698C;stroke-width:1;}#my-svg g.clickable{cursor:pointer;}#my-svg g.classGroup rect{fill:#FFFFFF;stroke:#33698C;}#my-svg g.classGroup line{stroke:#33698C;stroke-width:1;}#my-svg .classLabel .box{stroke:none;stroke-width:0;fill:#FFFFFF;opacity:0.5;}#my-svg .classLabel .label{fill:#33698C;font-size:10px;}#my-svg .relation{stroke:#33698C;stroke-width:1;fill:none;}#my-svg .dashed-line{stroke-dasharray:3;}#my-svg .dotted-line{stroke-dasharray:1 2;}#my-svg [id$="-compositionStart"],#my-svg .composition{fill:#33698C!important;stroke:#33698C!important;stroke-width:1;}#my-svg [id$="-compositionEnd"],#my-svg .composition{fill:#33698C!important;stroke:#33698C!important;stroke-width:1;}#my-svg [id$="-dependencyStart"],#my-svg .dependency{fill:#33698C!important;stroke:#33698C!important;stroke-width:1;}#my-svg [id$="-dependencyEnd"],#my-svg .dependency{fill:#33698C!important;stroke:#33698C!important;stroke-width:1;}#my-svg [id$="-extensionStart"],#my-svg .extension{fill:transparent!important;stroke:#33698C!important;stroke-width:1;}#my-svg [id$="-extensionEnd"],#my-svg .extension{fill:transparent!important;stroke:#33698C!important;stroke-width:1;}#my-svg [id$="-aggregationStart"],#my-svg .aggregation{fill:transparent!important;stroke:#33698C!important;stroke-width:1;}#my-svg [id$="-aggregationEnd"],#my-svg .aggregation{fill:transparent!important;stroke:#33698C!important;stroke-width:1;}#my-svg [id$="-lollipopStart"],#my-svg .lollipop{fill:#FFFFFF!important;stroke:#33698C!important;stroke-width:1;}#my-svg [id$="-lollipopEnd"],#my-svg .lollipop{fill:#FFFFFF!important;stroke:#33698C!important;stroke-width:1;}#my-svg .edgeTerminals{font-size:11px;line-height:initial;}#my-svg .classTitleText{text-anchor:middle;font-size:18px;fill:#1E2833;}#my-svg .edgeLabel[data-look="neo"]{background-color:#FBFAF7;text-align:center;}#my-svg .edgeLabel[data-look="neo"] p{background-color:#FBFAF7;}#my-svg .edgeLabel[data-look="neo"] rect{opacity:0.5;background-color:#FBFAF7;fill:#FBFAF7;}#my-svg .label-icon{display:inline-block;height:1em;overflow:visible;vertical-align:-0.125em;}#my-svg .node .label-icon path{fill:currentColor;stroke:revert;stroke-width:revert;}#my-svg .node .neo-node{stroke:#33698C;}#my-svg [data-look="neo"].node rect,#my-svg [data-look="neo"].cluster rect,#my-svg [data-look="neo"].node polygon{stroke:url(#my-svg-gradient);filter:drop-shadow( 1px 2px 2px rgba(185,185,185,1));}#my-svg [data-look="neo"].swimlane.cluster rect{filter:none;}#my-svg [data-look="neo"].node path{stroke:url(#my-svg-gradient);stroke-width:1px;}#my-svg [data-look="neo"].node .outer-path{filter:drop-shadow( 1px 2px 2px rgba(185,185,185,1));}#my-svg [data-look="neo"].node .neo-line path{stroke:#33698C;filter:none;}#my-svg [data-look="neo"].node circle{stroke:url(#my-svg-gradient);filter:drop-shadow( 1px 2px 2px rgba(185,185,185,1));}#my-svg [data-look="neo"].node circle .state-start{fill:#000000;}#my-svg [data-look="neo"].icon-shape .icon{fill:url(#my-svg-gradient);filter:drop-shadow( 1px 2px 2px rgba(185,185,185,1));}#my-svg [data-look="neo"].icon-shape .icon-neo path{stroke:url(#my-svg-gradient);filter:drop-shadow( 1px 2px 2px rgba(185,185,185,1));}#my-svg :root{--mermaid-font-family:"trebuchet ms",verdana,arial,sans-serif;}</style><g><defs><marker id="my-svg_class-aggregationStart" class="marker aggregation class" refX="18" refY="7" markerWidth="190" markerHeight="240" orient="auto"><path d="M 18,7 L9,13 L1,7 L9,1 Z"/></marker></defs><defs><marker id="my-svg_class-aggregationEnd" class="marker aggregation class" refX="1" refY="7" markerWidth="20" markerHeight="28" orient="auto"><path d="M 18,7 L9,13 L1,7 L9,1 Z"/></marker></defs><defs><marker id="my-svg_class-aggregationStart-margin" class="marker aggregation class" refX="15" refY="7" markerWidth="190" markerHeight="240" orient="auto" markerUnits="userSpaceOnUse"><path d="M 18,7 L9,13 L1,7 L9,1 Z" style="stroke-width: 2;"/></marker></defs><defs><marker id="my-svg_class-aggregationEnd-margin" class="marker aggregation class" refX="1" refY="7" markerWidth="20" markerHeight="28" orient="auto" markerUnits="userSpaceOnUse"><path d="M 18,7 L9,13 L1,7 L9,1 Z" style="stroke-width: 2;"/></marker></defs><defs><marker id="my-svg_class-extensionStart" class="marker extension class" refX="18" refY="7" markerWidth="20" markerHeight="28" orient="auto" markerUnits="userSpaceOnUse"><path d="M 1,7 L18,13 V 1 Z"/></marker></defs><defs><marker id="my-svg_class-extensionEnd" class="marker extension class" refX="1" refY="7" markerWidth="20" markerHeight="28" orient="auto"><path d="M 1,1 V 13 L18,7 Z"/></marker></defs><marker id="my-svg_class-extensionStart-margin" class="marker extension class" refX="18" refY="7" markerWidth="20" markerHeight="28" orient="auto" markerUnits="userSpaceOnUse" viewBox="0 0 20 14"><polygon points="10,7 18,13 18,1" style="stroke-width: 2; stroke-dasharray: 0;"/></marker><defs><marker id="my-svg_class-extensionEnd-margin" class="marker extension class" refX="9" refY="7" markerWidth="20" markerHeight="28" orient="auto" markerUnits="userSpaceOnUse" viewBox="0 0 20 14"><polygon points="10,1 10,13 18,7" style="stroke-width: 2; stroke-dasharray: 0;"/></marker></defs><defs><marker id="my-svg_class-compositionStart" class="marker composition class" refX="18" refY="7" markerWidth="190" markerHeight="240" orient="auto"><path d="M 18,7 L9,13 L1,7 L9,1 Z"/></marker></defs><defs><marker id="my-svg_class-compositionEnd" class="marker composition class" refX="1" refY="7" markerWidth="20" markerHeight="28" orient="auto"><path d="M 18,7 L9,13 L1,7 L9,1 Z"/></marker></defs><defs><marker id="my-svg_class-compositionStart-margin" class="marker composition class" refX="15" refY="7" markerWidth="190" markerHeight="240" orient="auto" markerUnits="userSpaceOnUse"><path viewBox="0 0 15 15" d="M 18,7 L9,13 L1,7 L9,1 Z" style="stroke-width: 0;"/></marker></defs><defs><marker id="my-svg_class-compositionEnd-margin" class="marker composition class" refX="3.5" refY="7" markerWidth="20" markerHeight="28" orient="auto" markerUnits="userSpaceOnUse"><path d="M 18,7 L9,13 L1,7 L9,1 Z" style="stroke-width: 0;"/></marker></defs><defs><marker id="my-svg_class-dependencyStart" class="marker dependency class" refX="6" refY="7" markerWidth="190" markerHeight="240" orient="auto"><path d="M 5,7 L9,13 L1,7 L9,1 Z"/></marker></defs><defs><marker id="my-svg_class-dependencyEnd" class="marker dependency class" refX="13" refY="7" markerWidth="20" markerHeight="28" orient="auto"><path d="M 18,7 L9,13 L14,7 L9,1 Z"/></marker></defs><defs><marker id="my-svg_class-dependencyStart-margin" class="marker dependency class" refX="4" refY="7" markerWidth="190" markerHeight="240" orient="auto" markerUnits="userSpaceOnUse"><path d="M 5,7 L9,13 L1,7 L9,1 Z" style="stroke-width: 0;"/></marker></defs><defs><marker id="my-svg_class-dependencyEnd-margin" class="marker dependency class" refX="16" refY="7" markerWidth="20" markerHeight="28" orient="auto" markerUnits="userSpaceOnUse"><path d="M 18,7 L9,13 L14,7 L9,1 Z" style="stroke-width: 0;"/></marker></defs><defs><marker id="my-svg_class-lollipopStart" class="marker lollipop class" refX="13" refY="7" markerWidth="190" markerHeight="240" orient="auto"><circle fill="transparent" cx="7" cy="7" r="6"/></marker></defs><defs><marker id="my-svg_class-lollipopEnd" class="marker lollipop class" refX="1" refY="7" markerWidth="190" markerHeight="240" orient="auto"><circle fill="transparent" cx="7" cy="7" r="6"/></marker></defs><defs><marker id="my-svg_class-lollipopStart-margin" class="marker lollipop class" refX="13" refY="7" markerWidth="190" markerHeight="240" orient="auto" markerUnits="userSpaceOnUse"><circle fill="transparent" cx="7" cy="7" r="6" stroke-width="2"/></marker></defs><defs><marker id="my-svg_class-lollipopEnd-margin" class="marker lollipop class" refX="1" refY="7" markerWidth="190" markerHeight="240" orient="auto" markerUnits="userSpaceOnUse"><circle fill="transparent" cx="7" cy="7" r="6" stroke-width="2"/></marker></defs><g class="root"><g class="clusters"/><g class="edgePaths"><path d="M39.436,65.36L37.16,67.967C34.885,70.573,30.333,75.787,28.057,82.56C25.781,89.333,25.781,97.667,25.781,101.833L25.781,106" id="my-svg-id_C_A_1" class="edge-thickness-normal edge-pattern-solid relation" style=";;;" data-edge="true" data-et="edge" data-id="id_C_A_1" data-points="W3sieCI6NTAuNzgxMjUsInkiOjUyLjM2NTk2MDU1NTE0OTc0fSx7IngiOjI1Ljc4MTI1LCJ5Ijo4MX0seyJ4IjoyNS43ODEyNSwieSI6MTA2fV0=" data-look="classic" marker-start="url(#my-svg_class-extensionStart)"/><path d="M97.689,65.36L99.965,67.967C102.24,70.573,106.792,75.787,109.068,82.56C111.344,89.333,111.344,97.667,111.344,101.833L111.344,106" id="my-svg-id_C_B_2" class="edge-thickness-normal edge-pattern-solid relation" style=";;;" data-edge="true" data-et="edge" data-id="id_C_B_2" data-points="W3sieCI6ODYuMzQzNzUsInkiOjUyLjM2NTk2MDU1NTE0OTc0fSx7IngiOjExMS4zNDM3NSwieSI6ODF9LHsieCI6MTExLjM0Mzc1LCJ5IjoxMDZ9XQ==" data-look="classic" marker-start="url(#my-svg_class-extensionStart)"/><path d="M25.781,171.25L25.781,172.542C25.781,173.833,25.781,176.417,25.781,181.875C25.781,187.333,25.781,195.667,25.781,199.833L25.781,204" id="my-svg-id_A_D_3" class="edge-thickness-normal edge-pattern-solid relation" style=";;;" data-edge="true" data-et="edge" data-id="id_A_D_3" data-points="W3sieCI6MjUuNzgxMjUsInkiOjE1NH0seyJ4IjoyNS43ODEyNSwieSI6MTc5fSx7IngiOjI1Ljc4MTI1LCJ5IjoyMDR9XQ==" data-look="classic" marker-start="url(#my-svg_class-extensionStart)"/></g><g class="edgeLabels"><g class="edgeLabel"><g class="label" data-id="id_C_A_1" transform="translate(0, 0)"><foreignObject width="0" height="0"><div xmlns="http://www.w3.org/1999/xhtml" class="labelBkg" style="display: table-cell; white-space: nowrap; line-height: 1.5; max-width: 200px; text-align: center;"><span class="edgeLabel"></span></div></foreignObject></g></g><g class="edgeLabel"><g class="label" data-id="id_C_B_2" transform="translate(0, 0)"><foreignObject width="0" height="0"><div xmlns="http://www.w3.org/1999/xhtml" class="labelBkg" style="display: table-cell; white-space: nowrap; line-height: 1.5; max-width: 200px; text-align: center;"><span class="edgeLabel"></span></div></foreignObject></g></g><g class="edgeLabel"><g class="label" data-id="id_A_D_3" transform="translate(0, 0)"><foreignObject width="0" height="0"><div xmlns="http://www.w3.org/1999/xhtml" class="labelBkg" style="display: table-cell; white-space: nowrap; line-height: 1.5; max-width: 200px; text-align: center;"><span class="edgeLabel"></span></div></foreignObject></g></g></g><g class="nodes"><g class="node default" id="my-svg-classId-C-0" data-look="classic" transform="translate(68.5625, 32)"><g class="basic label-container outer-path"><path d="M-17.78125 -24 L17.78125 -24 L17.78125 24 L-17.78125 24" stroke="none" stroke-width="0" fill="#FFFFFF" style=""/><path d="M-17.78125 -24 C-7.768853907404775 -24, 2.2435421851904493 -24, 17.78125 -24 M-17.78125 -24 C-8.959721557129553 -24, -0.1381931142591064 -24, 17.78125 -24 M17.78125 -24 C17.78125 -9.615230896479824, 17.78125 4.769538207040352, 17.78125 24 M17.78125 -24 C17.78125 -12.643062533099087, 17.78125 -1.2861250661981742, 17.78125 24 M17.78125 24 C9.060345365017396 24, 0.33944073003479147 24, -17.78125 24 M17.78125 24 C3.6340331557638414 24, -10.513183688472317 24, -17.78125 24 M-17.78125 24 C-17.78125 4.879278743953975, -17.78125 -14.24144251209205, -17.78125 -24 M-17.78125 24 C-17.78125 10.227060429016323, -17.78125 -3.5458791419673545, -17.78125 -24" stroke="#33698C" stroke-width="1.3" fill="none" stroke-dasharray="0 0" style=""/></g><g class="annotation-group text" transform="translate(0, 0)"/><g class="label-group text" transform="translate(-5.78125, 0)"><g class="label" style="font-weight: bolder" transform="translate(0,-12)"><foreignObject width="11.5625" height="24"><div xmlns="http://www.w3.org/1999/xhtml" style="display: table-cell; white-space: nowrap; line-height: 1.5; max-width: 61px; text-align: center;"><span class="nodeLabel markdown-node-label" style=""><p>C</p></span></div></foreignObject></g></g><g class="members-group text" transform="translate(-5.78125, 48)"/><g class="methods-group text" transform="translate(-5.78125, 78)"/></g><g class="node default" id="my-svg-classId-A-1" data-look="classic" transform="translate(25.78125, 130)"><g class="basic label-container outer-path"><path d="M-17.78125 -24 L17.78125 -24 L17.78125 24 L-17.78125 24" stroke="none" stroke-width="0" fill="#FFFFFF" style=""/><path d="M-17.78125 -24 C-9.364321383382466 -24, -0.9473927667649313 -24, 17.78125 -24 M-17.78125 -24 C-6.753516123054688 -24, 4.274217753890625 -24, 17.78125 -24 M17.78125 -24 C17.78125 -7.219332990884496, 17.78125 9.561334018231008, 17.78125 24 M17.78125 -24 C17.78125 -9.864896581814033, 17.78125 4.270206836371933, 17.78125 24 M17.78125 24 C6.8886644044169145 24, -4.003921191166171 24, -17.78125 24 M17.78125 24 C6.796290645287964 24, -4.188668709424071 24, -17.78125 24 M-17.78125 24 C-17.78125 10.179944884741769, -17.78125 -3.6401102305164628, -17.78125 -24 M-17.78125 24 C-17.78125 10.950326119001382, -17.78125 -2.0993477619972367, -17.78125 -24" stroke="#33698C" stroke-width="1.3" fill="none" stroke-dasharray="0 0" style=""/></g><g class="annotation-group text" transform="translate(0, 0)"/><g class="label-group text" transform="translate(-5.78125, 0)"><g class="label" style="font-weight: bolder" transform="translate(0,-12)"><foreignObject width="11.5625" height="24"><div xmlns="http://www.w3.org/1999/xhtml" style="display: table-cell; white-space: nowrap; line-height: 1.5; max-width: 62px; text-align: center;"><span class="nodeLabel markdown-node-label" style=""><p>A</p></span></div></foreignObject></g></g><g class="members-group text" transform="translate(-5.78125, 48)"/><g class="methods-group text" transform="translate(-5.78125, 78)"/></g><g class="node default" id="my-svg-classId-B-2" data-look="classic" transform="translate(111.34375, 130)"><g class="basic label-container outer-path"><path d="M-17.78125 -24 L17.78125 -24 L17.78125 24 L-17.78125 24" stroke="none" stroke-width="0" fill="#FFFFFF" style=""/><path d="M-17.78125 -24 C-10.262083756424758 -24, -2.742917512849516 -24, 17.78125 -24 M-17.78125 -24 C-4.741557084257657 -24, 8.298135831484686 -24, 17.78125 -24 M17.78125 -24 C17.78125 -6.019192529377953, 17.78125 11.961614941244093, 17.78125 24 M17.78125 -24 C17.78125 -7.699453561514545, 17.78125 8.60109287697091, 17.78125 24 M17.78125 24 C7.185365253281418 24, -3.410519493437164 24, -17.78125 24 M17.78125 24 C5.4780207627352695 24, -6.825208474529461 24, -17.78125 24 M-17.78125 24 C-17.78125 5.723814284082074, -17.78125 -12.552371431835851, -17.78125 -24 M-17.78125 24 C-17.78125 12.024092613456645, -17.78125 0.04818522691329008, -17.78125 -24" stroke="#33698C" stroke-width="1.3" fill="none" stroke-dasharray="0 0" style=""/></g><g class="annotation-group text" transform="translate(0, 0)"/><g class="label-group text" transform="translate(-5.78125, 0)"><g class="label" style="font-weight: bolder" transform="translate(0,-12)"><foreignObject width="11.5625" height="24"><div xmlns="http://www.w3.org/1999/xhtml" style="display: table-cell; white-space: nowrap; line-height: 1.5; max-width: 61px; text-align: center;"><span class="nodeLabel markdown-node-label" style=""><p>B</p></span></div></foreignObject></g></g><g class="members-group text" transform="translate(-5.78125, 48)"/><g class="methods-group text" transform="translate(-5.78125, 78)"/></g><g class="node default" id="my-svg-classId-D-3" data-look="classic" transform="translate(25.78125, 228)"><g class="basic label-container outer-path"><path d="M-17.78125 -24 L17.78125 -24 L17.78125 24 L-17.78125 24" stroke="none" stroke-width="0" fill="#FFFFFF" style=""/><path d="M-17.78125 -24 C-4.79344253760943 -24, 8.19436492478114 -24, 17.78125 -24 M-17.78125 -24 C-6.664123016653331 -24, 4.453003966693338 -24, 17.78125 -24 M17.78125 -24 C17.78125 -13.902092127625629, 17.78125 -3.8041842552512577, 17.78125 24 M17.78125 -24 C17.78125 -14.113484137192795, 17.78125 -4.226968274385591, 17.78125 24 M17.78125 24 C10.33738963718648 24, 2.893529274372961 24, -17.78125 24 M17.78125 24 C6.190529847102715 24, -5.40019030579457 24, -17.78125 24 M-17.78125 24 C-17.78125 11.340198273722057, -17.78125 -1.319603452555885, -17.78125 -24 M-17.78125 24 C-17.78125 13.540185733362463, -17.78125 3.0803714667249267, -17.78125 -24" stroke="#33698C" stroke-width="1.3" fill="none" stroke-dasharray="0 0" style=""/></g><g class="annotation-group text" transform="translate(0, 0)"/><g class="label-group text" transform="translate(-5.78125, 0)"><g class="label" style="font-weight: bolder" transform="translate(0,-12)"><foreignObject width="11.5625" height="24"><div xmlns="http://www.w3.org/1999/xhtml" style="display: table-cell; white-space: nowrap; line-height: 1.5; max-width: 62px; text-align: center;"><span class="nodeLabel markdown-node-label" style=""><p>D</p></span></div></foreignObject></g></g><g class="members-group text" transform="translate(-5.78125, 48)"/><g class="methods-group text" transform="translate(-5.78125, 78)"/></g></g></g></g><defs><filter id="my-svg-drop-shadow" height="130%" width="130%"><feDropShadow dx="4" dy="4" stdDeviation="0" flood-opacity="0.06" flood-color="#000000"/></filter></defs><defs><filter id="my-svg-drop-shadow-small" height="150%" width="150%"><feDropShadow dx="2" dy="2" stdDeviation="0" flood-opacity="0.06" flood-color="#000000"/></filter></defs><linearGradient id="my-svg-gradient" gradientUnits="objectBoundingBox" x1="0%" y1="0%" x2="100%" y2="0%"><stop offset="0%" stop-color="#33698C" stop-opacity="1"/><stop offset="100%" stop-color="hsl(42.8571428571, 0%, 82.9411764706%)" stop-opacity="1"/></linearGradient></svg>